<?xml version="1.0" encoding="utf-8"?>
<!-- Generator: Adobe Illustrator 26.1.0, SVG Export Plug-In . SVG Version: 6.00 Build 0)  -->
<svg version="1.1" id="Layer_1" xmlns="http://www.w3.org/2000/svg" xmlns:xlink="http://www.w3.org/1999/xlink" x="0px" y="0px"
	 viewBox="0 0 1000 155" style="enable-background:new 0 0 1000 155;" xml:space="preserve">
<style type="text/css">
	.st0{fill:#010202;}
	.st1{fill:#2DACBB;}
</style>
<g>
	<path class="st0" d="M283.7,66.1c-1.6,3.7-3.9,6.9-6.6,9.7c-2.8,2.8-6,5-9.8,6.6s-7.7,2.4-11.9,2.4h-13.2V118
		c0,1.5-0.2,2.7-0.7,3.8c-0.5,1.1-1.1,2-1.9,2.7c-0.8,0.8-1.6,1.3-2.6,1.7s-2,0.5-3,0.5s-2-0.2-3-0.5c-1-0.4-1.9-0.9-2.7-1.7
		c-0.8-0.7-1.4-1.6-1.8-2.7c-0.5-1.1-0.7-2.3-0.7-3.8V31.8c0-1.1,0.2-2.1,0.7-3.1c0.4-1,1-1.9,1.8-2.7c0.8-0.8,1.6-1.4,2.7-1.9
		c1-0.4,2-0.7,3-0.7h21.3c4.2,0,8.1,0.8,11.9,2.4c3.7,1.6,7,3.9,9.8,6.6c2.8,2.8,5,6.1,6.6,9.8l2.4,12
		C286.1,58.4,285.3,62.4,283.7,66.1z M268.5,48.7c-0.8-1.7-1.8-3.2-3.1-4.5c-1.3-1.3-2.8-2.3-4.5-3.1s-3.6-1.1-5.5-1.1h-13.2v28.3
		h13.2c2,0,3.8-0.4,5.5-1.1c1.7-0.8,3.2-1.8,4.5-3.1c1.3-1.3,2.3-2.8,3.1-4.5l1.1-5.4C269.7,52.2,269.3,50.4,268.5,48.7z"/>
	<path class="st0" d="M359.4,121.8c-0.5,1-1.1,1.8-1.9,2.5s-1.6,1.3-2.6,1.7c-1,0.4-2.1,0.6-3.2,0.6c-1.2,0-2.4-0.3-3.6-0.9
		s-2.3-1.6-3.3-2.9l-27.2-38.1h-5.2V118c0,1.5-0.2,2.7-0.7,3.8c-0.5,1.1-1.1,2-1.9,2.7c-0.8,0.8-1.6,1.3-2.6,1.7s-2,0.5-3,0.5
		s-2-0.2-3-0.5c-1-0.4-1.9-0.9-2.7-1.7c-0.8-0.7-1.4-1.6-1.8-2.7c-0.5-1.1-0.7-2.3-0.7-3.8V31.8c0-1.1,0.2-2.1,0.7-3.1
		c0.4-1,1-1.9,1.8-2.7c0.8-0.8,1.6-1.4,2.7-1.9c1-0.4,2-0.7,3-0.7h21.3c4.2,0,8.1,0.8,11.9,2.4c3.7,1.6,7,3.9,9.8,6.6
		c2.8,2.8,5,6.1,6.6,9.8s2.4,7.7,2.4,12c0,3.2-0.5,6.2-1.4,9.1c-1,2.9-2.3,5.6-4,8c-1.7,2.5-3.8,4.7-6.2,6.7c-2.4,2-5.1,3.6-8.1,4.8
		l21.8,30.5c0.7,1,1.2,1.9,1.5,2.8l0.4,2.7C360.1,119.9,359.9,120.9,359.4,121.8z M338.6,48.7c-0.8-1.7-1.8-3.2-3.1-4.5
		c-1.3-1.3-2.8-2.3-4.5-3.1s-3.6-1.1-5.5-1.1h-13.2v28.3h13.2c1.9,0,3.7-0.4,5.4-1.1c1.7-0.7,3.2-1.7,4.5-3c1.3-1.2,2.3-2.7,3.1-4.5
		l1.1-5.5C339.7,52.2,339.4,50.4,338.6,48.7z"/>
	<path class="st0" d="M434,106.1c-1.8,4.1-4.2,7.7-7.1,10.7c-3,3.1-6.6,5.5-10.6,7.3c-4.1,1.8-8.3,2.7-12.9,2.7s-8.9-0.9-12.9-2.7
		c-4.1-1.8-7.6-4.2-10.6-7.3c-3-3-5.4-6.6-7.1-10.7c-1.8-4.1-2.7-8.5-2.7-13.1V57.3c0-4.7,0.9-9,2.7-13.2c1.7-4.1,4.1-7.7,7.1-10.8
		s6.6-5.5,10.6-7.3s8.3-2.6,12.9-2.6c4.5,0,8.8,0.9,12.9,2.6c4.1,1.8,7.6,4.3,10.6,7.3c3,3.1,5.4,6.7,7.1,10.8s2.6,8.5,2.6,13.2V93
		C436.6,97.6,435.7,102,434,106.1z M418.8,50.7c-0.9-2.1-2.1-3.9-3.6-5.4c-1.6-1.5-3.3-2.8-5.3-3.7s-4.2-1.4-6.5-1.4
		s-4.5,0.5-6.5,1.4c-2.1,0.9-3.9,2.1-5.4,3.7c-1.6,1.6-2.8,3.4-3.7,5.5c-0.9,2.1-1.3,4.3-1.3,6.6V93c0,2.4,0.4,4.5,1.3,6.6
		s2.1,3.9,3.7,5.4c1.5,1.6,3.3,2.8,5.4,3.7c2,0.9,4.2,1.4,6.5,1.4s4.5-0.5,6.5-1.4s3.8-2.1,5.3-3.7c1.5-1.5,2.7-3.3,3.6-5.4
		c0.9-2,1.3-4.2,1.3-6.6V57.3C420.1,55,419.7,52.7,418.8,50.7z"/>
	<path class="st0" d="M519.2,103.7c-2,4.6-4.7,8.6-8.1,12s-7.4,6.1-12,8.1s-9.5,3-14.7,3s-10.1-1-14.7-3s-8.6-4.7-12-8.1
		s-6.1-7.4-8.1-12c-2-4.5-3-9.4-3-14.6s1-10.1,3-14.8c2-4.6,4.7-8.6,8.1-12s7.4-6.1,12-8.1s9.5-2.9,14.7-2.9s10.1,1,14.7,2.9
		c4.6,2,8.6,4.7,12,8.1c3.4,3.4,6.1,7.4,8.1,12l3,14.8C522.2,94.3,521.2,99.1,519.2,103.7z M504.1,80.7c-1.2-2.6-2.7-4.9-4.7-6.8
		c-2-2-4.2-3.5-6.8-4.7c-2.6-1.1-5.4-1.7-8.3-1.7s-5.7,0.6-8.3,1.7c-2.6,1.2-4.9,2.7-6.9,4.7s-3.5,4.2-4.6,6.8
		c-1.2,2.6-1.7,5.4-1.7,8.3s0.6,5.7,1.7,8.3c1.1,2.6,2.6,4.8,4.6,6.7c2,2,4.3,3.5,6.9,4.6s5.3,1.7,8.3,1.7s5.7-0.6,8.3-1.7
		c2.6-1.1,4.9-2.6,6.8-4.6c2-1.9,3.5-4.2,4.7-6.7l1.7-8.3C505.8,86.1,505.3,83.3,504.1,80.7z"/>
	<path class="st0" d="M603.8,102.9c-2,4.5-4.6,8.5-8,11.8c-3.4,3.4-7.3,6.1-11.9,8c-4.5,2-9.4,2.9-14.5,2.9c-3.9,0-7.6-0.6-11.1-1.7
		s-6.7-2.7-9.7-4.7v26.9c0,1.5-0.2,2.8-0.7,3.9c-0.5,1.1-1.1,2-1.9,2.7c-0.8,0.7-1.7,1.2-2.7,1.6c-1,0.4-2,0.5-3.1,0.5s-2-0.2-3-0.5
		c-1-0.4-1.9-0.9-2.7-1.6c-0.8-0.8-1.4-1.7-1.8-2.7c-0.5-1.1-0.7-2.4-0.7-3.9V88.4c0-3.4,0.4-6.7,1.3-9.9c0.9-3.2,2.2-6.1,3.8-8.9
		s3.6-5.3,5.9-7.5c2.3-2.3,4.8-4.2,7.5-5.8c2.8-1.6,5.7-2.8,8.9-3.7s6.5-1.3,9.9-1.3s6.7,0.4,9.9,1.3c3.2,0.9,6.1,2.1,8.9,3.7
		c2.8,1.6,5.3,3.5,7.6,5.8c2.3,2.3,4.2,4.8,5.9,7.5c1.6,2.8,2.8,5.7,3.7,8.9l1.3,9.9C606.7,93.6,605.7,98.4,603.8,102.9z
		 M588.6,80.3c-1.1-2.5-2.6-4.7-4.5-6.6s-4.1-3.4-6.6-4.5s-5.2-1.7-8.1-1.7c-2.9,0-5.6,0.5-8.1,1.6s-4.7,2.6-6.6,4.5
		c-1.9,1.9-3.4,4.1-4.5,6.7c-1.1,2.5-1.7,5.2-1.7,8.1s0.6,5.6,1.7,8.1c1.1,2.5,2.6,4.8,4.5,6.7c1.9,1.9,4.1,3.4,6.6,4.5
		s5.3,1.7,8.1,1.7s5.5-0.6,8.1-1.7c2.5-1.1,4.7-2.6,6.6-4.5c1.9-1.9,3.4-4.1,4.5-6.7l1.6-8.1C590.2,85.5,589.6,82.8,588.6,80.3z"/>
	<path class="st0" d="M658.2,62.9c-0.4,1-0.9,1.8-1.6,2.6c-0.8,0.8-1.7,1.4-2.8,1.9s-2.4,0.7-3.9,0.7h-17v25.2
		c0,2.3,0.4,4.4,1.3,6.4s2.1,3.8,3.6,5.3c1.4,1.4,3.1,2.6,5.1,3.4c2,0.9,4.1,1.3,6.3,1.3c1.5,0,2.8,0.2,3.9,0.7
		c1.1,0.5,2,1.1,2.7,1.9s1.2,1.7,1.6,2.7c0.4,1,0.5,2,0.5,3s-0.2,2-0.5,3c-0.4,1-0.9,1.9-1.6,2.7c-0.8,0.8-1.7,1.4-2.7,1.8
		c-1.1,0.5-2.4,0.7-3.9,0.7c-4.5,0-8.8-0.9-12.8-2.6s-7.4-4-10.4-6.9c-3-3-5.4-6.5-7.1-10.5c-1.7-4-2.6-8.2-2.6-12.8V31.8
		c0-1.5,0.2-2.8,0.7-3.9c0.4-1.1,1-2,1.8-2.8c0.8-0.7,1.6-1.3,2.7-1.7c1-0.4,2-0.5,3-0.5s2,0.2,3,0.5c1,0.4,1.8,1,2.6,1.7
		c0.8,0.8,1.4,1.7,1.9,2.8c0.4,1.1,0.7,2.4,0.7,3.9v20h17c1.5,0,2.8,0.2,3.9,0.7c1.1,0.5,2,1.1,2.8,1.9c0.7,0.8,1.2,1.7,1.6,2.7
		l0.5,3C658.7,61,658.6,62,658.2,62.9z"/>
	<path class="st0" d="M689.5,40.3c-0.6,1.3-1.4,2.5-2.3,3.5c-1,1-2.1,1.8-3.4,2.4c-1.3,0.6-2.8,0.9-4.3,0.9s-2.9-0.3-4.3-0.9
		s-2.5-1.4-3.5-2.4s-1.8-2.1-2.3-3.5c-0.6-1.3-0.9-2.7-0.9-4.2s0.3-2.9,0.9-4.3c0.6-1.3,1.4-2.4,2.3-3.4c1-1,2.1-1.8,3.5-2.3
		c1.3-0.6,2.8-0.9,4.3-0.9s2.9,0.3,4.3,0.9c1.3,0.6,2.4,1.4,3.4,2.3s1.8,2.1,2.3,3.4l0.9,4.3C690.4,37.6,690.1,39,689.5,40.3z
		 M687,121.8c-0.5,1.1-1.1,2-1.9,2.7c-0.8,0.8-1.6,1.3-2.6,1.7s-2,0.5-3,0.5s-2-0.2-3-0.5c-1-0.4-1.9-0.9-2.7-1.7
		c-0.8-0.7-1.4-1.6-1.8-2.7c-0.5-1.1-0.7-2.3-0.7-3.8V59.9c0-1.5,0.2-2.8,0.7-3.9c0.4-1.1,1-2,1.8-2.7s1.6-1.2,2.7-1.6
		c1-0.4,2-0.5,3-0.5s2,0.2,3,0.5c1,0.4,1.8,0.9,2.6,1.6c0.8,0.8,1.4,1.7,1.9,2.7c0.4,1.1,0.7,2.4,0.7,3.9V118
		C687.7,119.5,687.4,120.8,687,121.8z"/>
	<path class="st0" d="M773,103.7c-2,4.6-4.7,8.6-8.1,12c-3.4,3.4-7.4,6.1-12,8.1s-9.5,3-14.7,3s-10.1-1-14.7-3
		c-4.6-2-8.6-4.7-12-8.1s-6.1-7.4-8.1-12c-2-4.5-3-9.4-3-14.6s1-10.1,3-14.8c2-4.6,4.7-8.6,8.1-12c3.4-3.4,7.4-6.1,12-8.1
		s9.5-2.9,14.7-2.9s10.1,1,14.7,2.9c4.6,2,8.6,4.7,12,8.1c3.4,3.4,6.1,7.4,8.1,12l3,14.8C776,94.3,775,99.1,773,103.7z M758,80.7
		c-1.2-2.6-2.7-4.9-4.7-6.8c-2-2-4.2-3.5-6.8-4.7c-2.6-1.1-5.4-1.7-8.3-1.7c-2.9,0-5.7,0.6-8.3,1.7c-2.6,1.2-4.9,2.7-6.9,4.7
		s-3.5,4.2-4.6,6.8c-1.2,2.6-1.7,5.4-1.7,8.3s0.6,5.7,1.7,8.3c1.1,2.6,2.6,4.8,4.6,6.7c2,2,4.3,3.5,6.9,4.6c2.6,1.1,5.3,1.7,8.3,1.7
		c2.9,0,5.7-0.6,8.3-1.7s4.9-2.6,6.8-4.6c2-1.9,3.5-4.2,4.7-6.7l1.7-8.3C759.7,86.1,759.1,83.3,758,80.7z"/>
	<path class="st0" d="M851.3,121.8c-0.5,1.1-1.1,2-1.9,2.7c-0.8,0.8-1.7,1.3-2.7,1.7c-1,0.4-2,0.5-3.1,0.5s-2-0.2-3-0.5
		s-1.8-0.9-2.6-1.7c-0.8-0.7-1.4-1.6-1.9-2.7s-0.7-2.3-0.7-3.8V84.8c0-2.3-0.4-4.4-1.3-6.5c-0.9-2-2.1-3.8-3.6-5.3s-3.3-2.7-5.3-3.6
		c-2-0.8-4.1-1.3-6.4-1.3s-4.4,0.4-6.4,1.3s-3.8,2.1-5.3,3.6s-2.7,3.3-3.6,5.3c-0.9,2-1.3,4.2-1.3,6.5V118c0,1.5-0.2,2.7-0.7,3.8
		c-0.5,1.1-1.1,2-1.9,2.7c-0.8,0.8-1.6,1.3-2.6,1.7c-1,0.4-2,0.5-3,0.5s-2-0.2-3-0.5c-1-0.4-1.9-0.9-2.7-1.7
		c-0.8-0.7-1.4-1.6-1.8-2.7c-0.5-1.1-0.7-2.3-0.7-3.8V84.8c0-4.5,0.9-8.8,2.6-12.8c1.7-4,4.1-7.5,7.1-10.6c3-3,6.5-5.3,10.5-7.1
		s8.3-2.6,12.8-2.6s8.8,0.9,12.9,2.6c4,1.7,7.5,4.1,10.6,7.1c3,3,5.3,6.5,7.1,10.6c1.7,4,2.6,8.3,2.6,12.8V118
		C852.1,119.5,851.8,120.8,851.3,121.8z"/>
	<path class="st1" d="M933,121c-0.4,1-1,1.9-1.7,2.7c-0.8,0.8-1.7,1.4-2.8,1.8c-1.1,0.5-2.4,0.7-3.9,0.7h-51.4
		c-1.2,0-2.3-0.2-3.3-0.7s-1.9-1.1-2.5-1.9c-0.7-0.8-1.3-1.6-1.7-2.7c-0.4-1-0.6-2.1-0.6-3.1c0-2.2,0.8-4.1,2.5-5.7l42.8-40.7
		c1.9-1.8,3.3-3.9,4.4-6.1c1.1-2.2,1.6-4.7,1.6-7.3c0-2.4-0.5-4.8-1.4-6.9c-0.9-2.2-2.2-4.1-3.8-5.7c-1.6-1.6-3.6-2.9-5.7-3.8
		c-2.2-0.9-4.5-1.4-6.9-1.4c-2.5,0-4.8,0.5-6.9,1.4c-2.2,0.9-4.1,2.2-5.8,3.8c-1.6,1.6-2.9,3.5-3.9,5.7s-1.5,4.5-1.5,7
		c0,1.5-0.2,2.8-0.7,3.9c-0.5,1.1-1.1,2-1.9,2.7c-0.8,0.8-1.6,1.3-2.6,1.7c-1,0.4-2,0.6-3,0.6s-2-0.2-3-0.6s-1.9-0.9-2.7-1.7
		c-0.8-0.7-1.4-1.6-1.8-2.7c-0.5-1.1-0.7-2.4-0.7-3.9c0-4.7,0.9-9.2,2.7-13.4c1.8-4.1,4.3-7.8,7.4-11c3.1-3.1,6.7-5.5,10.9-7.3
		c4.1-1.8,8.6-2.7,13.5-2.7c4.7,0,9.2,0.9,13.4,2.7c4.1,1.8,7.8,4.3,11,7.4c3.1,3.1,5.6,6.8,7.4,11c1.8,4.2,2.7,8.6,2.7,13.4
		c0,4.9-1,9.5-3,13.8c-2,4.4-4.7,8.2-8.2,11.5L894,110.1h30.8c1.5,0,2.8,0.2,3.9,0.7c1.1,0.5,2,1.1,2.8,1.9c0.7,0.8,1.3,1.7,1.7,2.7
		l0.5,3C933.6,119.1,933.4,120.1,933,121z"/>
	<path class="st1" d="M999.5,94.9c-0.4,1-1,1.9-1.7,2.7c-0.8,0.8-1.7,1.4-2.8,1.9s-2.4,0.7-3.9,0.7h-1.3V118c0,1.5-0.2,2.7-0.7,3.8
		c-0.5,1.1-1.1,2-1.9,2.7c-0.8,0.8-1.7,1.3-2.7,1.7c-1,0.4-2,0.5-3.1,0.5c-1,0-2-0.2-3-0.5c-1-0.4-1.9-0.9-2.7-1.7
		c-0.8-0.7-1.4-1.6-1.8-2.7c-0.5-1.1-0.7-2.3-0.7-3.8v-17.9h-32.5c-1.2,0-2.3-0.2-3.3-0.7s-1.9-1.1-2.6-1.9
		c-0.8-0.8-1.3-1.7-1.7-2.7s-0.6-2-0.6-3.1c0-1.6,0.4-3.1,1.3-4.5l40.8-60c0.8-1.2,1.8-2,2.9-2.5c1.1-0.5,2.3-0.7,3.5-0.7
		c1.1,0,2.1,0.2,3.1,0.5c1,0.4,2,0.9,2.8,1.5c0.8,0.7,1.5,1.6,2.1,2.5c0.5,1,0.7,2.1,0.7,3.3v51.8h1.3c1.5,0,2.8,0.2,3.9,0.7
		c1.1,0.5,2,1.1,2.8,1.9c0.7,0.8,1.3,1.7,1.7,2.7l0.5,3C1000,92.9,999.8,93.9,999.5,94.9z M973.2,58.5l-17,25h17V58.5z"/>
	<rect x="141.4" y="59.2" class="st0" width="23.7" height="84.1"/>
	<rect x="94.3" y="107.8" class="st0" width="23.7" height="35.5"/>
	<rect x="47.1" y="88.3" class="st0" width="23.7" height="55"/>
	<rect y="102.1" class="st0" width="23.7" height="41.1"/>
	<path class="st0" d="M124,6.4L124,6.4c0,3.5,2.9,6.4,6.4,6.4h14.5L92.3,67.4L52.4,26c-1.3-1.3-3.4-1.3-4.6,0L5.3,70.5
		c-2.4,2.6-2.3,6.6,0.2,9.1l0,0c2.6,2.4,6.6,2.3,9.1-0.2l35.5-37.3L90,83.5c1.3,1.3,3.4,1.3,4.6,0l58.9-61.1V36
		c0,3.5,2.9,6.4,6.4,6.4l0,0c3.5,0,6.4-2.9,6.4-6.4V3.2c0-1.8-1.4-3.2-3.2-3.2h-32.8C126.9,0,124,2.9,124,6.4z"/>
</g>
</svg>
